<svg xmlns="http://www.w3.org/2000/svg" viewBox="0 0 64 64">
  <!-- Background Sheet -->
  <path fill="#000000" d="M18 6h28a4 4 0 0 1 4 4v44a4 4 0 0 1-4 4H18a4 4 0 0 1-4-4V10a4 4 0 0 1 4-4z"></path>

  <!-- Left Panel -->
  <rect x="8" y="14" width="18" height="36" rx="2" fill="#000000"></rect>

  <!-- X Letter -->
  <path fill="#FFFFFF" d="M13 22h4l3 5 3-5h4l-5 8 5 8h-4l-3-5-3 5h-4l5-8z"></path>

  <!-- Sheet Lines -->
  <rect x="30" y="18" width="12" height="2" fill="#FFFFFF"></rect>
  <rect x="30" y="25" width="12" height="2" fill="#FFFFFF"></rect>
  <rect x="30" y="32" width="12" height="2" fill="#FFFFFF"></rect>
  <rect x="30" y="39" width="12" height="2" fill="#FFFFFF"></rect>
</svg>